<svg width="400" height="300" viewBox="0 0 400 300" xmlns="http://www.w3.org/2000/svg">
  <defs>
    <linearGradient id="pythonGradient" x1="0%" y1="0%" x2="100%" y2="100%">
      <stop offset="0%" style="stop-color:#3776ab;stop-opacity:1" />
      <stop offset="100%" style="stop-color:#2d5a87;stop-opacity:1" />
    </linearGradient>
  </defs>
  
  <!-- Python Logo -->
  <circle cx="200" cy="100" r="40" fill="url(#pythonGradient)" stroke="#3776ab" stroke-width="3"/>
  <text x="200" y="110" text-anchor="middle" fill="white" font-family="Arial, sans-serif" font-size="16" style="font-weight:bold;">Python</text>
  
  <!-- Python Features -->
  <rect x="50" y="180" width="60" height="25" rx="4" fill="#6b7280" />
  <text x="80" y="195" text-anchor="middle" fill="white" font-family="Arial, sans-serif" font-size="8" style="font-weight:bold;">Libraries</text>
  
  <rect x="120" y="180" width="60" height="25" rx="4" fill="#6b7280" />
  <text x="150" y="195" text-anchor="middle" fill="white" font-family="Arial, sans-serif" font-size="8" style="font-weight:bold;">APIs</text>
  
  <rect x="190" y="180" width="60" height="25" rx="4" fill="#6b7280" />
  <text x="220" y="195" text-anchor="middle" fill="white" font-family="Arial, sans-serif" font-size="8" style="font-weight:bold;">Web Scraping</text>
  
  <rect x="260" y="180" width="60" height="25" rx="4" fill="#6b7280" />
  <text x="290" y="195" text-anchor="middle" fill="white" font-family="Arial, sans-serif" font-size="8" style="font-weight:bold;">Data Processing</text>
  
  <rect x="330" y="180" width="60" height="25" rx="4" fill="#6b7280" />
  <text x="360" y="195" text-anchor="middle" fill="white" font-family="Arial, sans-serif" font-size="8" style="font-weight:bold;">Scheduling</text>
  
  <!-- Automation Tasks -->
  <rect x="50" y="220" width="80" height="25" rx="4" fill="#3776ab" />
  <text x="90" y="235" text-anchor="middle" fill="white" font-family="Arial, sans-serif" font-size="8" style="font-weight:bold;">Web Scraping</text>
  
  <rect x="140" y="220" width="80" height="25" rx="4" fill="#3776ab" />
  <text x="180" y="235" text-anchor="middle" fill="white" font-family="Arial, sans-serif" font-size="8" style="font-weight:bold;">File Processing</text>
  
  <rect x="230" y="220" width="80" height="25" rx="4" fill="#3776ab" />
  <text x="270" y="235" text-anchor="middle" fill="white" font-family="Arial, sans-serif" font-size="8" style="font-weight:bold;">Task Scheduling</text>
  
  <rect x="320" y="220" width="80" height="25" rx="4" fill="#3776ab" />
  <text x="360" y="235" text-anchor="middle" fill="white" font-family="Arial, sans-serif" font-size="8" style="font-weight:bold;">API Integration</text>
  
  <!-- Performance Indicators -->
  <circle cx="100" cy="270" r="4" fill="#3776ab" />
  <text x="110" y="275" fill="#3776ab" font-family="Arial, sans-serif" font-size="10" style="font-weight:bold;">Versatile</text>
  
  <circle cx="200" cy="270" r="4" fill="#2d5a87" />
  <text x="210" y="275" fill="#2d5a87" font-family="Arial, sans-serif" font-size="10" style="font-weight:bold;">Powerful</text>
  
  <circle cx="300" cy="270" r="4" fill="#3776ab" />
  <text x="310" y="275" fill="#3776ab" font-family="Arial, sans-serif" font-size="10" style="font-weight:bold;">Automated</text>
</svg>