<svg width="400" height="300" viewBox="0 0 400 300" xmlns="http://www.w3.org/2000/svg">
  <defs>
    <linearGradient id="freeGradient" x1="0%" y1="0%" x2="100%" y2="100%">
      <stop offset="0%" style="stop-color:#10b981;stop-opacity:1" />
      <stop offset="100%" style="stop-color:#059669;stop-opacity:1" />
    </linearGradient>
  </defs>
  
  <!-- Free Resources -->
  <circle cx="200" cy="100" r="40" fill="url(#freeGradient)" stroke="#10b981" stroke-width="3"/>
  <text x="200" y="110" text-anchor="middle" fill="white" font-family="Arial, sans-serif" font-size="16" style="font-weight:bold;">FREE</text>
  
  <!-- Free Learning Platforms -->
  <rect x="50" y="180" width="60" height="25" rx="4" fill="#6c757d" />
  <text x="80" y="195" text-anchor="middle" fill="white" font-family="Arial, sans-serif" font-size="8" style="font-weight:bold;">YouTube</text>
  
  <rect x="120" y="180" width="60" height="25" rx="4" fill="#6c757d" />
  <text x="150" y="195" text-anchor="middle" fill="white" font-family="Arial, sans-serif" font-size="8" style="font-weight:bold;">GitHub</text>
  
  <rect x="190" y="180" width="60" height="25" rx="4" fill="#6c757d" />
  <text x="220" y="195" text-anchor="middle" fill="white" font-family="Arial, sans-serif" font-size="8" style="font-weight:bold;">MDN</text>
  
  <rect x="260" y="180" width="60" height="25" rx="4" fill="#6c757d" />
  <text x="290" y="195" text-anchor="middle" fill="white" font-family="Arial, sans-serif" font-size="8" style="font-weight:bold;">Stack Overflow</text>
  
  <rect x="330" y="180" width="60" height="25" rx="4" fill="#6c757d" />
  <text x="360" y="195" text-anchor="middle" fill="white" font-family="Arial, sans-serif" font-size="8" style="font-weight:bold;">W3Schools</text>
  
  <!-- Free Learning Resources -->
  <rect x="50" y="220" width="80" height="25" rx="4" fill="#10b981" />
  <text x="90" y="235" text-anchor="middle" fill="white" font-family="Arial, sans-serif" font-size="8" style="font-weight:bold;">Tutorials</text>
  
  <rect x="140" y="220" width="80" height="25" rx="4" fill="#10b981" />
  <text x="180" y="235" text-anchor="middle" fill="white" font-family="Arial, sans-serif" font-size="8" style="font-weight:bold;">Documentation</text>
  
  <rect x="230" y="220" width="80" height="25" rx="4" fill="#10b981" />
  <text x="270" y="235" text-anchor="middle" fill="white" font-family="Arial, sans-serif" font-size="8" style="font-weight:bold;">Practice</text>
  
  <rect x="320" y="220" width="80" height="25" rx="4" fill="#10b981" />
  <text x="360" y="235" text-anchor="middle" fill="white" font-family="Arial, sans-serif" font-size="8" style="font-weight:bold;">Community</text>
  
  <!-- Performance Indicators -->
  <circle cx="100" cy="270" r="4" fill="#10b981" />
  <text x="110" y="275" fill="#10b981" font-family="Arial, sans-serif" font-size="10" style="font-weight:bold;">Accessible</text>
  
  <circle cx="200" cy="270" r="4" fill="#059669" />
  <text x="210" y="275" fill="#059669" font-family="Arial, sans-serif" font-size="10" style="font-weight:bold;">Quality</text>
  
  <circle cx="300" cy="270" r="4" fill="#10b981" />
  <text x="310" y="275" fill="#10b981" font-family="Arial, sans-serif" font-size="10" style="font-weight:bold;">Community</text>
</svg>