<svg width="400" height="300" viewBox="0 0 400 300" xmlns="http://www.w3.org/2000/svg">
  <defs>
    <linearGradient id="rustGradient" x1="0%" y1="0%" x2="100%" y2="100%">
      <stop offset="0%" style="stop-color:#ce422b;stop-opacity:1" />
      <stop offset="100%" style="stop-color:#a52a2a;stop-opacity:1" />
    </linearGradient>
  </defs>
  
  <!-- Rust Logo -->
  <circle cx="200" cy="100" r="40" fill="url(#rustGradient)" stroke="#ce422b" stroke-width="3"/>
  <text x="200" y="110" text-anchor="middle" fill="white" font-family="Arial, sans-serif" font-size="16" style="font-weight:bold;">Rust</text>
  
  <!-- Rust Features -->
  <rect x="50" y="180" width="60" height="25" rx="4" fill="#6b7280" />
  <text x="80" y="195" text-anchor="middle" fill="white" font-family="Arial, sans-serif" font-size="8" style="font-weight:bold;">Memory Safe</text>
  
  <rect x="120" y="180" width="60" height="25" rx="4" fill="#6b7280" />
  <text x="150" y="195" text-anchor="middle" fill="white" font-family="Arial, sans-serif" font-size="8" style="font-weight:bold;">Concurrent</text>
  
  <rect x="190" y="180" width="60" height="25" rx="4" fill="#6b7280" />
  <text x="220" y="195" text-anchor="middle" fill="white" font-family="Arial, sans-serif" font-size="8" style="font-weight:bold;">Fast</text>
  
  <rect x="260" y="180" width="60" height="25" rx="4" fill="#6b7280" />
  <text x="290" y="195" text-anchor="middle" fill="white" font-family="Arial, sans-serif" font-size="8" style="font-weight:bold;">AI Ready</text>
  
  <rect x="330" y="180" width="60" height="25" rx="4" fill="#6b7280" />
  <text x="360" y="195" text-anchor="middle" fill="white" font-family="Arial, sans-serif" font-size="8" style="font-weight:bold;">ML</text>
  
  <!-- AI Development -->
  <rect x="50" y="220" width="80" height="25" rx="4" fill="#ce422b" />
  <text x="90" y="235" text-anchor="middle" fill="white" font-family="Arial, sans-serif" font-size="8" style="font-weight:bold;">TensorFlow</text>
  
  <rect x="140" y="220" width="80" height="25" rx="4" fill="#ce422b" />
  <text x="180" y="235" text-anchor="middle" fill="white" font-family="Arial, sans-serif" font-size="8" style="font-weight:bold;">PyTorch</text>
  
  <rect x="230" y="220" width="80" height="25" rx="4" fill="#ce422b" />
  <text x="270" y="235" text-anchor="middle" fill="white" font-family="Arial, sans-serif" font-size="8" style="font-weight:bold;">ONNX</text>
  
  <rect x="320" y="220" width="80" height="25" rx="4" fill="#ce422b" />
  <text x="360" y="235" text-anchor="middle" fill="white" font-family="Arial, sans-serif" font-size="8" style="font-weight:bold;">Candle</text>
  
  <!-- Performance Indicators -->
  <circle cx="100" cy="270" r="4" fill="#ce422b" />
  <text x="110" y="275" fill="#ce422b" font-family="Arial, sans-serif" font-size="10" style="font-weight:bold;">Safe</text>
  
  <circle cx="200" cy="270" r="4" fill="#a52a2a" />
  <text x="210" y="275" fill="#a52a2a" font-family="Arial, sans-serif" font-size="10" style="font-weight:bold;">Fast</text>
  
  <circle cx="300" cy="270" r="4" fill="#ce422b" />
  <text x="310" y="275" fill="#ce422b" font-family="Arial, sans-serif" font-size="10" style="font-weight:bold;">AI Ready</text>
</svg>
