<svg width="800" height="400" viewBox="0 0 800 400" fill="none" xmlns="http://www.w3.org/2000/svg">
  <rect width="800" height="400" fill="#1E293B"/>
  
  <!-- Keyboard -->
  <rect x="100" y="150" width="600" height="200" rx="8" fill="#374151" stroke="#6B7280" stroke-width="2"/>
  
  <!-- Function Keys -->
  <rect x="120" y="170" width="40" height="20" rx="2" fill="#1F2937" stroke="#4B5563" stroke-width="1"/>
  <rect x="170" y="170" width="40" height="20" rx="2" fill="#1F2937" stroke="#4B5563" stroke-width="1"/>
  <rect x="220" y="170" width="40" height="20" rx="2" fill="#1F2937" stroke="#4B5563" stroke-width="1"/>
  <rect x="270" y="170" width="40" height="20" rx="2" fill="#1F2937" stroke="#4B5563" stroke-width="1"/>
  
  <!-- Main Keys -->
  <g transform="translate(120, 200)">
    <!-- Top Row -->
    <rect x="0" y="0" width="30" height="20" rx="2" fill="#1F2937" stroke="#4B5563" stroke-width="1"/>
    <rect x="35" y="0" width="30" height="20" rx="2" fill="#1F2937" stroke="#4B5563" stroke-width="1"/>
    <rect x="70" y="0" width="30" height="20" rx="2" fill="#1F2937" stroke="#4B5563" stroke-width="1"/>
    <rect x="105" y="0" width="30" height="20" rx="2" fill="#1F2937" stroke="#4B5563" stroke-width="1"/>
    <rect x="140" y="0" width="30" height="20" rx="2" fill="#1F2937" stroke="#4B5563" stroke-width="1"/>
    <rect x="175" y="0" width="30" height="20" rx="2" fill="#1F2937" stroke="#4B5563" stroke-width="1"/>
    <rect x="210" y="0" width="30" height="20" rx="2" fill="#1F2937" stroke="#4B5563" stroke-width="1"/>
    <rect x="245" y="0" width="30" height="20" rx="2" fill="#1F2937" stroke="#4B5563" stroke-width="1"/>
    <rect x="280" y="0" width="30" height="20" rx="2" fill="#1F2937" stroke="#4B5563" stroke-width="1"/>
    <rect x="315" y="0" width="30" height="20" rx="2" fill="#1F2937" stroke="#4B5563" stroke-width="1"/>
    <rect x="350" y="0" width="30" height="20" rx="2" fill="#1F2937" stroke="#4B5563" stroke-width="1"/>
    <rect x="385" y="0" width="30" height="20" rx="2" fill="#1F2937" stroke="#4B5563" stroke-width="1"/>
    <rect x="420" y="0" width="30" height="20" rx="2" fill="#1F2937" stroke="#4B5563" stroke-width="1"/>
    <rect x="455" y="0" width="30" height="20" rx="2" fill="#1F2937" stroke="#4B5563" stroke-width="1"/>
    
    <!-- Second Row -->
    <rect x="0" y="25" width="30" height="20" rx="2" fill="#1F2937" stroke="#4B5563" stroke-width="1"/>
    <rect x="35" y="25" width="30" height="20" rx="2" fill="#1F2937" stroke="#4B5563" stroke-width="1"/>
    <rect x="70" y="25" width="30" height="20" rx="2" fill="#1F2937" stroke="#4B5563" stroke-width="1"/>
    <rect x="105" y="25" width="30" height="20" rx="2" fill="#1F2937" stroke="#4B5563" stroke-width="1"/>
    <rect x="140" y="25" width="30" height="20" rx="2" fill="#1F2937" stroke="#4B5563" stroke-width="1"/>
    <rect x="175" y="25" width="30" height="20" rx="2" fill="#1F2937" stroke="#4B5563" stroke-width="1"/>
    <rect x="210" y="25" width="30" height="20" rx="2" fill="#1F2937" stroke="#4B5563" stroke-width="1"/>
    <rect x="245" y="25" width="30" height="20" rx="2" fill="#1F2937" stroke="#4B5563" stroke-width="1"/>
    <rect x="280" y="25" width="30" height="20" rx="2" fill="#1F2937" stroke="#4B5563" stroke-width="1"/>
    <rect x="315" y="25" width="30" height="20" rx="2" fill="#1F2937" stroke="#4B5563" stroke-width="1"/>
    <rect x="350" y="25" width="30" height="20" rx="2" fill="#1F2937" stroke="#4B5563" stroke-width="1"/>
    <rect x="385" y="25" width="30" height="20" rx="2" fill="#1F2937" stroke="#4B5563" stroke-width="1"/>
    <rect x="420" y="25" width="30" height="20" rx="2" fill="#1F2937" stroke="#4B5563" stroke-width="1"/>
    <rect x="455" y="25" width="30" height="20" rx="2" fill="#1F2937" stroke="#4B5563" stroke-width="1"/>
    
    <!-- Third Row -->
    <rect x="0" y="50" width="30" height="20" rx="2" fill="#1F2937" stroke="#4B5563" stroke-width="1"/>
    <rect x="35" y="50" width="30" height="20" rx="2" fill="#1F2937" stroke="#4B5563" stroke-width="1"/>
    <rect x="70" y="50" width="30" height="20" rx="2" fill="#1F2937" stroke="#4B5563" stroke-width="1"/>
    <rect x="105" y="50" width="30" height="20" rx="2" fill="#1F2937" stroke="#4B5563" stroke-width="1"/>
    <rect x="140" y="50" width="30" height="20" rx="2" fill="#1F2937" stroke="#4B5563" stroke-width="1"/>
    <rect x="175" y="50" width="30" height="20" rx="2" fill="#1F2937" stroke="#4B5563" stroke-width="1"/>
    <rect x="210" y="50" width="30" height="20" rx="2" fill="#1F2937" stroke="#4B5563" stroke-width="1"/>
    <rect x="245" y="50" width="30" height="20" rx="2" fill="#1F2937" stroke="#4B5563" stroke-width="1"/>
    <rect x="280" y="50" width="30" height="20" rx="2" fill="#1F2937" stroke="#4B5563" stroke-width="1"/>
    <rect x="315" y="50" width="30" height="20" rx="2" fill="#1F2937" stroke="#4B5563" stroke-width="1"/>
    <rect x="350" y="50" width="30" height="20" rx="2" fill="#1F2937" stroke="#4B5563" stroke-width="1"/>
    <rect x="385" y="50" width="30" height="20" rx="2" fill="#1F2937" stroke="#4B5563" stroke-width="1"/>
    <rect x="420" y="50" width="30" height="20" rx="2" fill="#1F2937" stroke="#4B5563" stroke-width="1"/>
    <rect x="455" y="50" width="30" height="20" rx="2" fill="#1F2937" stroke="#4B5563" stroke-width="1"/>
    
    <!-- Fourth Row -->
    <rect x="0" y="75" width="30" height="20" rx="2" fill="#1F2937" stroke="#4B5563" stroke-width="1"/>
    <rect x="35" y="75" width="30" height="20" rx="2" fill="#1F2937" stroke="#4B5563" stroke-width="1"/>
    <rect x="70" y="75" width="30" height="20" rx="2" fill="#1F2937" stroke="#4B5563" stroke-width="1"/>
    <rect x="105" y="75" width="30" height="20" rx="2" fill="#1F2937" stroke="#4B5563" stroke-width="1"/>
    <rect x="140" y="75" width="30" height="20" rx="2" fill="#1F2937" stroke="#4B5563" stroke-width="1"/>
    <rect x="175" y="75" width="30" height="20" rx="2" fill="#1F2937" stroke="#4B5563" stroke-width="1"/>
    <rect x="210" y="75" width="30" height="20" rx="2" fill="#1F2937" stroke="#4B5563" stroke-width="1"/>
    <rect x="245" y="75" width="30" height="20" rx="2" fill="#1F2937" stroke="#4B5563" stroke-width="1"/>
    <rect x="280" y="75" width="30" height="20" rx="2" fill="#1F2937" stroke="#4B5563" stroke-width="1"/>
    <rect x="315" y="75" width="30" height="20" rx="2" fill="#1F2937" stroke="#4B5563" stroke-width="1"/>
    <rect x="350" y="75" width="30" height="20" rx="2" fill="#1F2937" stroke="#4B5563" stroke-width="1"/>
    <rect x="385" y="75" width="30" height="20" rx="2" fill="#1F2937" stroke="#4B5563" stroke-width="1"/>
    <rect x="420" y="75" width="30" height="20" rx="2" fill="#1F2937" stroke="#4B5563" stroke-width="1"/>
    <rect x="455" y="75" width="30" height="20" rx="2" fill="#1F2937" stroke="#4B5563" stroke-width="1"/>
  </g>
  
  <!-- Highlighted Shortcuts -->
  <rect x="120" y="200" width="30" height="20" rx="2" fill="#10B981" stroke="#059669" stroke-width="2"/>
  <text x="135" y="212" text-anchor="middle" fill="#FFFFFF" font-family="monospace" font-size="8">Ctrl</text>
  
  <rect x="210" y="200" width="30" height="20" rx="2" fill="#3B82F6" stroke="#2563EB" stroke-width="2"/>
  <text x="225" y="212" text-anchor="middle" fill="#FFFFFF" font-family="monospace" font-size="8">P</text>
  
  <rect x="280" y="200" width="30" height="20" rx="2" fill="#8B5CF6" stroke="#7C3AED" stroke-width="2"/>
  <text x="295" y="212" text-anchor="middle" fill="#FFFFFF" font-family="monospace" font-size="8">D</text>
  
  <!-- Shortcut Labels -->
  <text x="50" y="50" fill="#FFFFFF" font-family="Arial" font-size="16" font-weight="bold">IDE Shortcuts Mastery</text>
  <text x="50" y="70" fill="#9CA3AF" font-family="Arial" font-size="12">Master keyboard shortcuts across VS Code, IntelliJ, and other popular editors</text>
  
  <!-- Shortcut Examples -->
  <rect x="50" y="320" width="700" height="60" rx="4" fill="#0F172A" stroke="#334155" stroke-width="1"/>
  
  <rect x="70" y="340" width="80" height="30" rx="4" fill="#10B981" stroke="#059669" stroke-width="1"/>
  <text x="110" y="358" text-anchor="middle" fill="#FFFFFF" font-family="monospace" font-size="10">Ctrl+P</text>
  <text x="110" y="370" text-anchor="middle" fill="#9CA3AF" font-family="Arial" font-size="8">Quick Open</text>
  
  <rect x="170" y="340" width="80" height="30" rx="4" fill="#3B82F6" stroke="#2563EB" stroke-width="1"/>
  <text x="210" y="358" text-anchor="middle" fill="#FFFFFF" font-family="monospace" font-size="10">Ctrl+D</text>
  <text x="210" y="370" text-anchor="middle" fill="#9CA3AF" font-family="Arial" font-size="8">Multi-cursor</text>
  
  <rect x="270" y="340" width="80" height="30" rx="4" fill="#8B5CF6" stroke="#7C3AED" stroke-width="1"/>
  <text x="310" y="358" text-anchor="middle" fill="#FFFFFF" font-family="monospace" font-size="10">Alt+Click</text>
  <text x="310" y="370" text-anchor="middle" fill="#9CA3AF" font-family="Arial" font-size="8">Add Cursor</text>
  
  <rect x="370" y="340" width="80" height="30" rx="4" fill="#F59E0B" stroke="#D97706" stroke-width="1"/>
  <text x="410" y="358" text-anchor="middle" fill="#FFFFFF" font-family="monospace" font-size="10">Ctrl+Z</text>
  <text x="410" y="370" text-anchor="middle" fill="#9CA3AF" font-family="Arial" font-size="8">Undo</text>
  
  <rect x="470" y="340" width="80" height="30" rx="4" fill="#EF4444" stroke="#DC2626" stroke-width="1"/>
  <text x="510" y="358" text-anchor="middle" fill="#FFFFFF" font-family="monospace" font-size="10">Ctrl+W</text>
  <text x="510" y="370" text-anchor="middle" fill="#9CA3AF" font-family="Arial" font-size="8">Close Tab</text>
  
  <rect x="570" y="340" width="80" height="30" rx="4" fill="#06B6D4" stroke="#0891B2" stroke-width="1"/>
  <text x="610" y="358" text-anchor="middle" fill="#FFFFFF" font-family="monospace" font-size="10">Ctrl+Tab</text>
  <text x="610" y="370" text-anchor="middle" fill="#9CA3AF" font-family="Arial" font-size="8">Switch Tab</text>
</svg>