<svg width="800" height="400" viewBox="0 0 800 400" fill="none" xmlns="http://www.w3.org/2000/svg">
  <rect width="800" height="400" fill="#1E293B"/>
  
  <!-- AI Image Generation Interface -->
  <rect x="50" y="50" width="700" height="300" rx="8" fill="#0F172A" stroke="#334155" stroke-width="2"/>
  
  <!-- Generated Images Grid -->
  <g transform="translate(70, 80)">
    <!-- Image 1 -->
    <rect x="0" y="0" width="120" height="120" rx="8" fill="#374151" stroke="#6B7280" stroke-width="1"/>
    <circle cx="60" cy="60" r="30" fill="#10B981" opacity="0.7"/>
    <text x="60" y="65" text-anchor="middle" fill="#FFFFFF" font-family="Arial" font-size="12">AI Art</text>
    
    <!-- Image 2 -->
    <rect x="140" y="0" width="120" height="120" rx="8" fill="#374151" stroke="#6B7280" stroke-width="1"/>
    <rect x="150" y="10" width="100" height="100" rx="4" fill="#3B82F6" opacity="0.7"/>
    <text x="200" y="65" text-anchor="middle" fill="#FFFFFF" font-family="Arial" font-size="12">Portrait</text>
    
    <!-- Image 3 -->
    <rect x="280" y="0" width="120" height="120" rx="8" fill="#374151" stroke="#6B7280" stroke-width="1"/>
    <polygon points="340,20 380,60 340,100 300,60" fill="#8B5CF6" opacity="0.7"/>
    <text x="340" y="65" text-anchor="middle" fill="#FFFFFF" font-family="Arial" font-size="12">Abstract</text>
    
    <!-- Image 4 -->
    <rect x="420" y="0" width="120" height="120" rx="8" fill="#374151" stroke="#6B7280" stroke-width="1"/>
    <rect x="430" y="10" width="100" height="100" rx="50" fill="#F59E0B" opacity="0.7"/>
    <text x="480" y="65" text-anchor="middle" fill="#FFFFFF" font-family="Arial" font-size="12">Nature</text>
    
    <!-- Image 5 -->
    <rect x="0" y="140" width="120" height="120" rx="8" fill="#374151" stroke="#6B7280" stroke-width="1"/>
    <rect x="10" y="150" width="100" height="100" rx="8" fill="#EF4444" opacity="0.7"/>
    <text x="60" y="205" text-anchor="middle" fill="#FFFFFF" font-family="Arial" font-size="12">City</text>
    
    <!-- Image 6 -->
    <rect x="140" y="140" width="120" height="120" rx="8" fill="#374151" stroke="#6B7280" stroke-width="1"/>
    <circle cx="200" cy="200" r="40" fill="#06B6D4" opacity="0.7"/>
    <text x="200" y="205" text-anchor="middle" fill="#FFFFFF" font-family="Arial" font-size="12">Space</text>
  </g>
  
  <!-- AI Tools -->
  <rect x="50" y="320" width="700" height="60" rx="4" fill="#0F172A" stroke="#334155" stroke-width="1"/>
  
  <circle cx="100" cy="350" r="12" fill="#10B981"/>
  <text x="125" y="355" fill="#FFFFFF" font-family="Arial" font-size="12">DALL-E 3</text>
  
  <circle cx="200" cy="350" r="12" fill="#3B82F6"/>
  <text x="225" y="355" fill="#FFFFFF" font-family="Arial" font-size="12">Midjourney</text>
  
  <circle cx="300" cy="350" r="12" fill="#8B5CF6"/>
  <text x="325" y="355" fill="#FFFFFF" font-family="Arial" font-size="12">Stable Diffusion</text>
  
  <circle cx="400" cy="350" r="12" fill="#F59E0B"/>
  <text x="425" y="355" fill="#FFFFFF" font-family="Arial" font-size="12">Adobe Firefly</text>
  
  <circle cx="500" cy="350" r="12" fill="#EF4444"/>
  <text x="525" y="355" fill="#FFFFFF" font-family="Arial" font-size="12">Craiyon</text>
  
  <!-- Prompt Input -->
  <rect x="500" y="80" width="200" height="120" rx="8" fill="#374151" stroke="#6B7280" stroke-width="1"/>
  <text x="510" y="100" fill="#FFFFFF" font-family="Arial" font-size="12" font-weight="bold">Prompt Input</text>
  <rect x="510" y="110" width="180" height="60" rx="4" fill="#1F2937" stroke="#4B5563" stroke-width="1"/>
  <text x="520" y="130" fill="#9CA3AF" font-family="Arial" font-size="10">"A futuristic city with</text>
  <text x="520" y="145" fill="#9CA3AF" font-family="Arial" font-size="10">flying cars and neon lights"</text>
  <rect x="510" y="180" width="80" height="20" rx="4" fill="#10B981"/>
  <text x="550" y="193" text-anchor="middle" fill="#FFFFFF" font-family="Arial" font-size="10">Generate</text>
  
  <!-- Performance Stats -->
  <rect x="500" y="220" width="200" height="60" rx="8" fill="#374151" stroke="#6B7280" stroke-width="1"/>
  <text x="510" y="240" fill="#FFFFFF" font-family="Arial" font-size="12" font-weight="bold">Performance</text>
  <text x="510" y="260" fill="#10B981" font-family="Arial" font-size="14" font-weight="bold">10x</text>
  <text x="530" y="260" fill="#9CA3AF" font-family="Arial" font-size="10">Faster Creation</text>
  <text x="510" y="275" fill="#3B82F6" font-family="Arial" font-size="14" font-weight="bold">90%</text>
  <text x="530" y="275" fill="#9CA3AF" font-family="Arial" font-size="10">Cost Reduction</text>
  
  <!-- Title -->
  <text x="50" y="30" fill="#FFFFFF" font-family="Arial" font-size="16" font-weight="bold">AI Image Generation</text>
  <text x="50" y="45" fill="#9CA3AF" font-family="Arial" font-size="12">Build creative AI applications for image generation</text>
</svg>